<mxfile host="app.diagrams.net" modified="2023-05-10T11:03:10.047Z" agent="Mozilla/5.0 (Windows NT 10.0; Win64; x64) AppleWebKit/537.36 (KHTML, like Gecko) Chrome/111.0.0.0 Safari/537.36" etag="18bgF8FCgU8rh9X3c8md" version="21.2.9" type="github">
  <diagram name="第 1 页" id="CbhCFxoEaSMSPWocApz4">
    <mxGraphModel dx="794" dy="438" grid="1" gridSize="10" guides="1" tooltips="1" connect="1" arrows="1" fold="1" page="1" pageScale="1" pageWidth="827" pageHeight="1169" math="0" shadow="0">
      <root>
        <mxCell id="0" />
        <mxCell id="1" parent="0" />
        <mxCell id="bRlwjaz-FEbB0wQX_TmA-6" style="edgeStyle=orthogonalEdgeStyle;rounded=0;orthogonalLoop=1;jettySize=auto;html=1;exitX=0;exitY=0.5;exitDx=0;exitDy=0;entryX=1;entryY=0.5;entryDx=0;entryDy=0;endArrow=classic;endFill=1;startArrow=classic;startFill=1;" edge="1" parent="1" source="bRlwjaz-FEbB0wQX_TmA-1" target="bRlwjaz-FEbB0wQX_TmA-4">
          <mxGeometry relative="1" as="geometry" />
        </mxCell>
        <mxCell id="bRlwjaz-FEbB0wQX_TmA-8" style="edgeStyle=orthogonalEdgeStyle;rounded=0;orthogonalLoop=1;jettySize=auto;html=1;exitX=0.5;exitY=1;exitDx=0;exitDy=0;entryX=0.5;entryY=0;entryDx=0;entryDy=0;startArrow=classic;startFill=1;" edge="1" parent="1" source="bRlwjaz-FEbB0wQX_TmA-1" target="bRlwjaz-FEbB0wQX_TmA-2">
          <mxGeometry relative="1" as="geometry" />
        </mxCell>
        <mxCell id="bRlwjaz-FEbB0wQX_TmA-1" value="workflow-controller" style="rounded=0;whiteSpace=wrap;html=1;" vertex="1" parent="1">
          <mxGeometry x="450" y="555" width="120" height="60" as="geometry" />
        </mxCell>
        <mxCell id="bRlwjaz-FEbB0wQX_TmA-7" style="edgeStyle=orthogonalEdgeStyle;rounded=0;orthogonalLoop=1;jettySize=auto;html=1;exitX=0.5;exitY=1;exitDx=0;exitDy=0;startArrow=classic;startFill=1;" edge="1" parent="1" source="bRlwjaz-FEbB0wQX_TmA-2" target="bRlwjaz-FEbB0wQX_TmA-5">
          <mxGeometry relative="1" as="geometry" />
        </mxCell>
        <mxCell id="bRlwjaz-FEbB0wQX_TmA-2" value="postgresql" style="rounded=0;whiteSpace=wrap;html=1;" vertex="1" parent="1">
          <mxGeometry x="320" y="670" width="120" height="60" as="geometry" />
        </mxCell>
        <mxCell id="bRlwjaz-FEbB0wQX_TmA-3" value="argo-server" style="rounded=0;whiteSpace=wrap;html=1;" vertex="1" parent="1">
          <mxGeometry x="540" y="670" width="120" height="60" as="geometry" />
        </mxCell>
        <mxCell id="bRlwjaz-FEbB0wQX_TmA-4" value="s3" style="rounded=0;whiteSpace=wrap;html=1;" vertex="1" parent="1">
          <mxGeometry x="90" y="555" width="120" height="60" as="geometry" />
        </mxCell>
        <mxCell id="bRlwjaz-FEbB0wQX_TmA-5" value="ebs" style="rounded=0;whiteSpace=wrap;html=1;" vertex="1" parent="1">
          <mxGeometry x="320" y="770" width="120" height="60" as="geometry" />
        </mxCell>
      </root>
    </mxGraphModel>
  </diagram>
</mxfile>
